<?xml version="1.0" encoding="UTF-8"?>
<svg id="Calque_4" data-name="Calque 4" xmlns="http://www.w3.org/2000/svg" viewBox="0 0 2000 900">
  <defs>
    <style>
      .cls-1 {
        fill: #f4f4f4;
      }

      .cls-1, .cls-2 {
        stroke-width: 0px;
      }

      .cls-2 {
        fill: #b83a8d;
      }
    </style>
  </defs>
  <path class="cls-2" d="m1633.5,612.69c18.32-26.71,30-57.11,34.56-88.59,7.34-50.3-3.53-103.4-34.51-148.63-61.25-89.39-179.42-116.49-272.65-66-6.42,3.48-12.73,7.32-18.88,11.53-34.58,23.69-59.84,55.91-74.9,91.91,6.46-64.08,40.06-124.99,97.35-164.24,6.64-4.55,13.45-8.69,20.39-12.46,100.68-54.52,228.3-25.26,294.44,71.28,33.46,48.84,45.2,106.19,37.28,160.5-8.02,55.4-36.47,107.69-83.07,144.69Z"/>
  <polygon class="cls-2" points="1574.53 652.05 1612.37 633.67 1613.48 593.71 1632.28 628.89 1671.82 632.66 1636.64 650.1 1632.87 691 1615.93 653.55 1574.53 652.05"/>
  <path class="cls-1" d="m285.72,492.04c9.2-36.27,29.28-62.7,60.22-79.27,30.94-16.57,63.81-18.41,98.61-5.52,34.8,12.9,61.23,36.65,79.28,71.26,18.04,34.62,22.46,70.07,13.26,106.35-9.21,36.28-29.28,62.7-60.22,79.28s-63.81,18.42-98.61,5.52c-34.8-12.89-61.24-36.64-79.28-71.27-18.05-34.61-22.47-70.06-13.26-106.35Zm153.03,31.77c-15.47-30.57-31.4-54.69-47.79-72.37-16.39-17.68-28.45-24.49-36.19-20.44-7.73,4.06-8.84,17.77-3.32,41.16,5.52,23.39,16.2,50.37,32.04,80.93,15.83,30.2,31.95,54.23,48.34,72.09,16.38,17.87,28.45,24.77,36.18,20.72,7.36-4.05,8.37-17.86,3.04-41.43-5.34-23.57-16.12-50.45-32.32-80.66Z"/>
  <path class="cls-1" d="m661.93,548.66c0,61.51,4.78,103.86,14.36,127.06h-125.4c6.26-13.99,10.77-33.7,13.53-59.11,2.76-25.41,3.77-50.55,3.04-75.41-.74-24.86-2.58-47.97-5.52-69.33-2.95-21.36-6.63-35.91-11.05-43.64,38.3-3.68,75.31-11.78,111.04-24.31v98.89c13.62-50.08,31.49-81.76,53.59-95.02,6.99-4.05,14.73-6.72,23.2-8.01,8.47-1.29,17.21-.73,26.24,1.66,9.02,2.4,17.21,6.63,24.58,12.71,7.36,6.08,13.44,15.29,18.23,27.62,4.78,12.34,7.18,26.98,7.18,43.92,0,1.1-.09,7.55-.28,19.34-.19,11.79-.19,21.27,0,28.45.18,7.18.36,17.5.55,30.94.18,13.45.55,24.95,1.11,34.53.55,9.58,1.38,19.71,2.49,30.38,1.1,10.69,2.49,19.98,4.14,27.9,1.66,7.92,3.77,14.09,6.35,18.51h-120.99c3.68-4.78,6.81-18.51,9.39-41.16,2.57-22.65,4.23-46.59,4.97-71.82.73-25.22-.47-48.06-3.59-68.5-3.13-20.44-8.38-31.02-15.75-31.77-8.1-.36-15.29,6.45-21.54,20.44-6.27,14-12.34,32.97-18.23,56.9-.74,2.95-1.29,5.9-1.66,8.84Z"/>
  <path class="cls-1" d="m960.8,675.72h-120.43c8.1-18.41,13.07-40.05,14.92-64.91,1.84-24.86,1.19-47.32-1.93-67.4-3.13-20.07-7.46-35.63-12.98-46.68,22.46,0,44.65-2.39,66.57-7.18,21.91-4.78,39.86-11.96,53.86-21.54-8.11,20.63-12.62,53.22-13.53,97.78-.93,44.57,3.59,81.21,13.53,109.94Z"/>
  <path class="cls-1" d="m857.76,454.21c-11.65-8.68-17.47-19.31-17.47-31.89s5.82-23.29,17.47-32.16,25.79-13.31,42.42-13.31,30.86,4.44,42.7,13.31c11.83,8.87,17.75,19.6,17.75,32.16s-5.92,23.2-17.75,31.89c-11.84,8.69-26.06,13.03-42.7,13.03s-30.78-4.34-42.42-13.03Z"/>
  <path class="cls-1" d="m1098.9,675.72h-125.41c8.47-18.41,13.72-45.85,15.75-82.31,2.02-36.46,1.38-70.44-1.93-101.93s-7.93-52.57-13.81-63.25c38.67-3.68,75.69-11.78,111.04-24.31v28.73c8.1-12.15,21.54-24.31,40.33-36.46,18.78-12.15,34.61-18.23,47.51-18.23,3.68-.73,7.54-1.1,11.6-1.1,16.57,0,30.75,4.42,42.54,13.26,11.78,8.84,17.68,19.53,17.68,32.04s-5.9,23.12-17.68,31.77c-11.79,8.66-25.96,12.98-42.54,12.98-7.73,0-18.97-3.13-33.7-9.39-14.73-6.26-24.68-8.84-29.83-7.73-7.73,1.48-14.64,5.07-20.72,10.77-6.08,5.71-9.86,11.88-11.33,18.51-2.21,12.9-3.59,31.77-4.14,56.63-.55,24.86.36,51.1,2.76,78.72,2.39,27.62,6.36,48.06,11.88,61.32Zm145.84,0h-120.98c8.1-18.41,13.07-40.05,14.91-64.91,1.84-24.86,1.19-47.32-1.93-67.4-3.13-20.07-7.46-35.63-12.98-46.68,22.46,0,44.65-2.39,66.57-7.18,21.91-4.78,40.05-11.96,54.42-21.54-8.48,20.63-13.17,53.22-14.09,97.78-.92,44.57,3.77,81.21,14.09,109.94Z"/>
  <path class="cls-1" d="m1406.05,588.99c-3.68,12.9-7.46,24.03-11.32,33.42-3.87,9.39-9.03,19.06-15.47,29-6.45,9.94-14.56,17.59-24.31,22.93-9.76,5.34-21.09,8.01-33.97,8.01-20.63,0-36.93-7.27-48.89-21.82-11.97-14.54-17.32-31.85-16.02-51.93,1.29-20.07,9.11-37.47,23.48-52.21,10.31-10.68,23.2-19.97,38.67-27.9,15.47-7.92,29.18-13.72,41.16-17.4,11.96-3.68,23.2-9.3,33.7-16.85,10.5-7.54,17.21-17.21,20.16-29,2.94-12.15,2.48-23.48-1.38-33.98-3.87-10.5-12.07-16.3-24.58-17.4-6.27-.36-12.43,1.29-18.51,4.97-6.07,3.69-10.68,8.38-13.81,14.09-3.13,5.71-3.78,12.71-1.93,20.99,1.84,8.29,6.81,16.49,14.91,24.58-7.73,9.58-18.23,15.94-31.49,19.06-13.26,3.13-25.88,1.75-37.84-4.14-11.97-5.89-19.61-15.83-22.93-29.83-2.58-19.89,9.39-37.01,35.91-51.38,29.09-15.47,61.32-20.8,96.68-16.02,42.35,5.16,70.89,24.13,85.63,56.9,6.26,14,9.39,30.02,9.39,48.06l.55,101.65c0,19.53,1.84,34.25,5.52,44.2,3.68,9.94,9.57,14.18,17.68,12.71,10.68-3.68,14.82-16.11,12.43-37.29-2.4-21.17-9.67-38.95-21.82-53.31,20.99-10.68,37.2-8.1,48.61,7.73,9.95,14.73,11.41,32.41,4.42,53.03-8.11,24.68-25.41,40.52-51.93,47.51-8.48,2.58-17.68,3.87-27.62,3.87-55.99,0-84.34-30.75-85.08-92.26Zm0-45.85c.36-15.47.55-26.52.55-33.15-.74.37-2.68,2.21-5.8,5.52-3.13,3.32-5.16,5.44-6.08,6.35-.92.92-2.76,2.95-5.52,6.08-2.76,3.13-4.7,5.52-5.8,7.18-1.11,1.66-2.95,4.06-5.52,7.18-2.58,3.13-4.42,5.8-5.52,8.01-1.11,2.21-2.58,5.07-4.42,8.56-1.85,3.5-3.32,6.72-4.42,9.67-1.11,2.95-2.12,6.27-3.04,9.94-.92,3.69-1.75,7.37-2.48,11.05-1.48,8.84-1.29,15.84.55,20.99,1.84,5.16,4.78,7.73,8.84,7.73,8.1-.73,15.19-7.64,21.27-20.72,6.08-13.07,11.88-31.21,17.4-54.42Z"/>
</svg>